<svg xmlns="http://www.w3.org/2000/svg" width="24" height="16" viewBox="0 0 24 16">
  <g fill="none" fill-rule="evenodd" transform="translate(-3 -7)">
    <rect width="30" height="30"/>
    <path fill="#FFF" d="M22.5,0.9375 C22.5,0.42 22.08,0 21.5625,0 C21.315,0 21.095625,0.099375 20.926875,0.255 L20.923125,0.25125 L7.5225,12.759375 L1.60125,6.838125 C1.430625,6.6675 1.19625,6.5625 0.9375,6.5625 C0.42,6.5625 0,6.9825 0,7.5 C0,7.75875 0.105,7.993125 0.27375,8.16375 L6.83625,14.72625 C7.006875,14.895 7.24125,15 7.5,15 C7.7475,15 7.96875,14.900625 8.135625,14.743125 L8.139375,14.746875 L22.201875,1.62375 L22.198125,1.62 C22.381875,1.4475 22.5,1.2075 22.5,0.9375" transform="translate(3.75 7.5)"/>
  </g>
</svg>
