<svg xmlns="http://www.w3.org/2000/svg" xmlns:xlink="http://www.w3.org/1999/xlink" width="23" height="23" viewBox="0 0 23 23">
  <defs>
    <polygon id="delete-a" points="22.414 11.207 22.414 0 0 0 0 11.207 0 22.414 22.414 22.414"/>
  </defs>
  <g fill="none" fill-rule="evenodd" transform="translate(0 .5)">
    <rect width="22.414" height="22.414" x="2.586" y="2.586"/>
    <mask id="delete-b" fill="#fff">
      <use xlink:href="#delete-a"/>
    </mask>
    <path fill="#FFF" d="M18.2112069,20.260528 C18.2112069,20.6751832 17.8932112,21.0127909 17.5023707,21.0127909 L4.91142241,21.0127909 C4.5205819,21.0127909 4.20258621,20.6751832 4.20258621,20.260528 L4.20258621,4.20244612 L18.2112069,4.20244612 L18.2112069,20.260528 Z M6.73674569,1.40072198 L15.6770474,1.40072198 L16.3774784,2.80158405 L6.03631466,2.80158405 L6.73674569,1.40072198 Z M21.7133621,2.80158405 L17.9436422,2.80158405 L16.7360991,0.386497845 L16.7304957,0.390700431 C16.6142241,0.160959052 16.3830819,-0.000140086207 16.1099138,-0.000140086207 L6.30387931,-0.000140086207 C6.03071121,-0.000140086207 5.79956897,0.160959052 5.68329741,0.390700431 L5.67769397,0.386497845 L4.47015086,2.80158405 L0.700431034,2.80158405 C0.313793103,2.80158405 0,3.11537716 0,3.50201509 C0,3.88865302 0.313793103,4.20244612 0.700431034,4.20244612 L2.80172414,4.20244612 L2.80172414,20.260528 C2.80172414,21.4484591 3.74730603,22.413653 4.91142241,22.413653 L17.5023707,22.413653 C18.6650862,22.413653 19.612069,21.4484591 19.612069,20.260528 L19.612069,4.20244612 L21.7133621,4.20244612 C22.1,4.20244612 22.4137931,3.88865302 22.4137931,3.50201509 C22.4137931,3.11537716 22.1,2.80158405 21.7133621,2.80158405 L21.7133621,2.80158405 Z" mask="url(#delete-b)"/>
    <path fill="#FFF" d="M11.2068966 7.00431034C10.8202586 7.00431034 10.5064655 7.31810345 10.5064655 7.70474138L10.5064655 17.5107759C10.5064655 17.8974138 10.8202586 18.2112069 11.2068966 18.2112069 11.5935345 18.2112069 11.9073276 17.8974138 11.9073276 17.5107759L11.9073276 7.70474138C11.9073276 7.31810345 11.5935345 7.00431034 11.2068966 7.00431034M7.70474138 7.00431034C7.31810345 7.00431034 7.00431034 7.31810345 7.00431034 7.70474138L7.00431034 17.5107759C7.00431034 17.8974138 7.31810345 18.2112069 7.70474138 18.2112069 8.09137931 18.2112069 8.40517241 17.8974138 8.40517241 17.5107759L8.40517241 7.70474138C8.40517241 7.31810345 8.09137931 7.00431034 7.70474138 7.00431034M14.7090517 7.00431034C14.3224138 7.00431034 14.0086207 7.31810345 14.0086207 7.70474138L14.0086207 17.5107759C14.0086207 17.8974138 14.3224138 18.2112069 14.7090517 18.2112069 15.0956897 18.2112069 15.4094828 17.8974138 15.4094828 17.5107759L15.4094828 7.70474138C15.4094828 7.31810345 15.0956897 7.00431034 14.7090517 7.00431034"/>
  </g>
</svg>
